<svg width="21" height="21" viewBox="0 0 21 21" fill="none" xmlns="http://www.w3.org/2000/svg">
<g clip-path="url(#clip0)">
<path d="M10.155 0C4.54741 0 0 4.54741 0 10.155C0 15.7626 4.54741 20.31 10.155 20.31C15.7626 20.31 20.31 15.7626 20.31 10.155C20.31 4.54741 15.7626 0 10.155 0ZM14.1073 12.3749C14.0911 12.5292 13.9956 13.3295 13.3355 13.7803C12.5597 14.3104 11.2944 14.154 10.9166 13.4371C10.7095 13.0451 10.807 12.5597 10.9938 12.2368C11.3634 11.599 12.2672 11.2924 13.2096 11.5706V7.2263L8.25195 8.14634L8.18087 13.8006C8.17274 13.9631 8.13619 14.2393 7.97371 14.5257C7.64062 15.1127 7.04351 15.2873 6.88306 15.3259C6.22908 15.4884 5.2542 15.3239 4.96783 14.6496C4.72207 14.0687 5.13437 13.4574 5.15874 13.4229C5.57713 12.8237 6.46874 12.5841 7.37456 12.8603C7.34816 10.8902 7.32175 8.92015 7.29535 6.95008C7.29535 6.8465 7.30957 6.62512 7.44971 6.4078C7.71171 6.0016 8.18899 5.95692 8.25195 5.95286C8.25195 5.95286 12.6409 5.12624 13.3112 5.00235C13.9814 4.87846 14.1073 5.47761 14.1073 5.47761V12.3749Z" fill="#E5E5E5"/>
</g>
<defs>
<clipPath id="clip0">
<rect width="20.31" height="20.31" fill="white"/>
</clipPath>
</defs>
</svg>
