<svg xmlns="http://www.w3.org/2000/svg" width="20.309" height="20.308" viewBox="0 0 20.309 20.308"><path d="M36.236,18.448A10.154,10.154,0,1,0,46.391,28.6,10.153,10.153,0,0,0,36.236,18.448Zm2.812,6.34a.066.066,0,0,1-.064.066l-1.321.036a.445.445,0,0,0-.435.445l0,1.176h1.714a.067.067,0,0,1,.048.021.064.064,0,0,1,.017.05L38.852,28.7a.066.066,0,0,1-.063.062l-1.582.07v5.922a.066.066,0,0,1-.066.066H34.589a.066.066,0,0,1-.066-.066V28.813H33.356a.066.066,0,0,1-.066-.066V26.593a.066.066,0,0,1,.066-.066h1.167l0-1.478a2.4,2.4,0,0,1,.619-1.592,2.426,2.426,0,0,1,.547-.448,2.476,2.476,0,0,1,1.2-.343l2.029.022a.133.133,0,0,1,.132.133Z" transform="translate(-26.082 -18.448)" fill="#000000"/></svg>