<svg xmlns="http://www.w3.org/2000/svg" width="20.309" height="20.308" viewBox="0 0 20.309 20.308"><path d="M63.7,27.3a3.181,3.181,0,1,1-6.114-1.235H55.845v4.7a1.18,1.18,0,0,0,1.18,1.181H64.02A1.18,1.18,0,0,0,65.2,30.769v-4.7h-1.75A3.155,3.155,0,0,1,63.7,27.3Z" transform="translate(-50.369 -17.185)" fill="#000000"/><path d="M60.147,29.505a2.114,2.114,0,1,0-2.114-2.114A2.114,2.114,0,0,0,60.147,29.505Z" transform="translate(-50.006 -17.316)" fill="#000000"/><rect width="1.994" height="1.994" transform="translate(12.623 5.616)" fill="#000000"/><path d="M61.3,18.448A10.154,10.154,0,1,0,71.457,28.6,10.154,10.154,0,0,0,61.3,18.448Zm5.9,13.563a2.5,2.5,0,0,1-2.495,2.5h-6.82a2.5,2.5,0,0,1-2.495-2.5V25.192A2.5,2.5,0,0,1,57.892,22.7h6.82a2.5,2.5,0,0,1,2.495,2.495Z" transform="translate(-51.148 -18.448)" fill="#000000"/></svg>