<svg xmlns="http://www.w3.org/2000/svg" width="20.664" height="20.662" viewBox="0 0 20.664 20.662"><path d="M111.461,18.448a10.331,10.331,0,1,0,10.332,10.331A10.331,10.331,0,0,0,111.461,18.448ZM116.23,33.4a.707.707,0,0,1-.972.226,9.474,9.474,0,0,0-3.063-1.239,9.882,9.882,0,0,0-1.755-.2,13.947,13.947,0,0,0-4.219.493.706.706,0,1,1-.37-1.363,15.263,15.263,0,0,1,4.647-.54,11.319,11.319,0,0,1,1.989.232,10.912,10.912,0,0,1,3.517,1.422A.706.706,0,0,1,116.23,33.4Zm1.383-2.825a.883.883,0,0,1-1.207.317,12.933,12.933,0,0,0-5.317-1.7,12.78,12.78,0,0,0-4.906.509.882.882,0,1,1-.515-1.687,14.538,14.538,0,0,1,5.58-.579,14.7,14.7,0,0,1,6.049,1.936A.882.882,0,0,1,117.613,30.574Zm.491-2.827a.937.937,0,0,1-.427-.1,17.042,17.042,0,0,0-4.125-1.444,17.507,17.507,0,0,0-8.03.232.953.953,0,1,1-.486-1.842,19.4,19.4,0,0,1,8.909-.254,18.877,18.877,0,0,1,4.588,1.606.952.952,0,0,1-.429,1.8Z" transform="translate(-101.128 -18.448)" fill="#e5e5e5"/></svg>