<svg xmlns="http://www.w3.org/2000/svg" width="20.31" height="20.308" viewBox="0 0 20.31 20.308"><path d="M86.368,18.448A10.154,10.154,0,1,0,96.524,28.6,10.154,10.154,0,0,0,86.368,18.448ZM92.743,30.5c-.132,1.052-.33,2.488-2.125,2.585s-4.249.114-4.249.114v-.01s-2.454-.016-4.249-.115-1.992-1.533-2.124-2.587a36.65,36.65,0,0,1,0-3.886c.231-2.306,1.911-2.422,1.911-2.422s3.025-.2,4.518-.157c1.492-.045,4.41.17,4.41.17s1.679.115,1.91,2.421A36.7,36.7,0,0,1,92.743,30.5Z" transform="translate(-76.214 -18.448)" fill="#000000"/><path d="M83.968,30.067l4.02-2.5-4.02-2.591Z" transform="translate(-74.928 -17.366)" fill="#000000"/></svg>